<svg width="32" height="31" viewBox="0 0 32 31" fill="none" xmlns="http://www.w3.org/2000/svg">
<path fill-rule="evenodd" clip-rule="evenodd" d="M0.666992 15.6663C0.666992 7.19795 7.53193 0.333008 16.0003 0.333008C24.4687 0.333008 31.3337 7.19795 31.3337 15.6663C31.3337 24.1347 24.4687 30.9997 16.0003 30.9997C7.53193 30.9997 0.666992 24.1347 0.666992 15.6663ZM19.7293 8.14257L21.85 8.14163H21.8504V4.40641L18.7598 4.4017C15.7026 4.4017 13.6085 6.26837 13.6085 9.69582V12.6492H10.1506V16.6539H13.6085V26.931H17.7449V16.6539H21.7086L21.7104 12.6492H17.7446V10.0924C17.7446 8.93284 18.0662 8.14257 19.7293 8.14257Z" fill="url(#paint0_linear_1554_16659)"/>
<defs>
<linearGradient id="paint0_linear_1554_16659" x1="16.0003" y1="0.333008" x2="16.0003" y2="30.9997" gradientUnits="userSpaceOnUse">
<stop stop-color="#A3B7C7"/>
<stop offset="1" stop-color="#738A9C"/>
</linearGradient>
</defs>
</svg>
