<svg width="31" height="31" viewBox="0 0 31 31" fill="none" xmlns="http://www.w3.org/2000/svg">
<path d="M18.2682 15.6663C18.2682 17.2873 16.9543 18.6012 15.3333 18.6012C13.7124 18.6012 12.3984 17.2873 12.3984 15.6663C12.3984 14.0454 13.7124 12.7314 15.3333 12.7314C16.9543 12.7314 18.2682 14.0454 18.2682 15.6663Z" fill="url(#paint0_linear_1554_16658)"/>
<path fill-rule="evenodd" clip-rule="evenodd" d="M22.1973 10.4737C22.0562 10.0914 21.8311 9.74536 21.5387 9.46132C21.2546 9.16886 20.9088 8.94379 20.5263 8.8027C20.2161 8.68221 19.75 8.53879 18.8916 8.49972C17.963 8.45737 17.6845 8.44824 15.3336 8.44824C12.9825 8.44824 12.7041 8.45713 11.7757 8.49948C10.9172 8.53879 10.4509 8.68221 10.1409 8.8027C9.75839 8.94379 9.41235 9.16886 9.12855 9.46132C8.83609 9.74536 8.61101 10.0912 8.4697 10.4737C8.3492 10.7839 8.20578 11.2502 8.16671 12.1087C8.12436 13.0371 8.11523 13.3155 8.11523 15.6666C8.11523 18.0175 8.12436 18.296 8.16671 19.2246C8.20578 20.083 8.3492 20.5491 8.4697 20.8593C8.61101 21.2419 8.83586 21.5877 9.12832 21.8717C9.41235 22.1642 9.75816 22.3892 10.1407 22.5303C10.4509 22.651 10.9172 22.7945 11.7757 22.8335C12.7041 22.8759 12.9822 22.8848 15.3334 22.8848C17.6848 22.8848 17.9632 22.8759 18.8913 22.8335C19.7498 22.7945 20.2161 22.651 20.5263 22.5303C21.2942 22.2341 21.9011 21.6272 22.1973 20.8593C22.3178 20.5491 22.4612 20.083 22.5005 19.2246C22.5429 18.296 22.5518 18.0175 22.5518 15.6666C22.5518 13.3155 22.5429 13.0371 22.5005 12.1087C22.4615 11.2502 22.318 10.7839 22.1973 10.4737ZM15.3336 20.1876C12.8365 20.1876 10.8122 18.1635 10.8122 15.6664C10.8122 13.1693 12.8365 11.1452 15.3336 11.1452C17.8305 11.1452 19.8548 13.1693 19.8548 15.6664C19.8548 18.1635 17.8305 20.1876 15.3336 20.1876ZM18.977 10.9665C18.977 11.55 19.4501 12.0231 20.0336 12.0231C20.6171 12.0231 21.0899 11.55 21.0902 10.9665C21.0902 10.3829 20.6171 9.90985 20.0336 9.90985C19.4501 9.90985 18.977 10.3829 18.977 10.9665Z" fill="url(#paint1_linear_1554_16658)"/>
<path fill-rule="evenodd" clip-rule="evenodd" d="M0 15.6663C0 7.19927 6.86626 0.333008 15.3333 0.333008C23.8004 0.333008 30.6667 7.19927 30.6667 15.6663C30.6667 24.1334 23.8004 30.9997 15.3333 30.9997C6.86626 30.9997 0 24.1334 0 15.6663ZM23.6757 21.4336C23.8933 20.8735 24.0423 20.2336 24.0849 19.2963C24.128 18.3574 24.138 18.0575 24.138 15.6663C24.138 13.2752 24.128 12.9752 24.0851 12.0363C24.0423 11.099 23.8935 10.4591 23.6757 9.89901C23.4548 9.31152 23.1081 8.77947 22.6603 8.33961C22.2204 7.89156 21.6881 7.54482 21.1006 7.32372C20.5405 7.10637 19.9006 6.95756 18.9633 6.91498C18.0244 6.87193 17.7245 6.86164 15.3333 6.86164C12.9422 6.86164 12.6422 6.87193 11.7033 6.91475C10.766 6.95756 10.1261 7.10637 9.56602 7.32396C8.97852 7.54506 8.44624 7.89156 8.00662 8.33961C7.55857 8.77924 7.21183 9.31152 6.99073 9.89901C6.77314 10.4591 6.62433 11.099 6.58175 12.0363C6.5387 12.9752 6.52864 13.2752 6.52864 15.6663C6.52864 18.0575 6.5387 18.3574 6.58199 19.2966C6.62457 20.2336 6.77361 20.8738 6.9912 21.4336C7.2123 22.0211 7.5588 22.5534 8.00662 22.993C8.44648 23.4411 8.97852 23.7876 9.56625 24.0087C10.1261 24.2263 10.7663 24.3751 11.7033 24.4179C12.6425 24.4607 12.9422 24.471 15.3336 24.471C17.7247 24.471 18.0247 24.4607 18.9636 24.4179C19.9006 24.3751 20.5408 24.2263 21.1006 24.0087C22.2833 23.5513 23.2183 22.6163 23.6757 21.4336Z" fill="url(#paint2_linear_1554_16658)"/>
<defs>
<linearGradient id="paint0_linear_1554_16658" x1="15.3333" y1="12.7314" x2="15.3333" y2="18.6012" gradientUnits="userSpaceOnUse">
<stop stop-color="#A3B7C7"/>
<stop offset="1" stop-color="#738A9C"/>
</linearGradient>
<linearGradient id="paint1_linear_1554_16658" x1="15.3335" y1="8.44824" x2="15.3335" y2="22.8848" gradientUnits="userSpaceOnUse">
<stop stop-color="#A3B7C7"/>
<stop offset="1" stop-color="#738A9C"/>
</linearGradient>
<linearGradient id="paint2_linear_1554_16658" x1="15.3333" y1="0.333008" x2="15.3333" y2="30.9997" gradientUnits="userSpaceOnUse">
<stop stop-color="#A3B7C7"/>
<stop offset="1" stop-color="#738A9C"/>
</linearGradient>
</defs>
</svg>
