<svg width="31" height="31" viewBox="0 0 31 31" fill="none" xmlns="http://www.w3.org/2000/svg">
<path fill-rule="evenodd" clip-rule="evenodd" d="M0 15.6663C0 7.19927 6.86626 0.333008 15.3333 0.333008C23.8004 0.333008 30.6667 7.19927 30.6667 15.6663C30.6667 24.1334 23.8004 30.9997 15.3333 30.9997C6.86626 30.9997 0 24.1334 0 15.6663ZM7.14328 23.5127H10.8776V12.2778H7.14328V23.5127ZM9.01058 10.7436H8.98624C7.73311 10.7436 6.92264 9.88099 6.92264 8.80287C6.92264 7.70041 7.75791 6.86164 9.03538 6.86164C10.3128 6.86164 11.099 7.70041 11.1233 8.80287C11.1233 9.88099 10.3128 10.7436 9.01058 10.7436ZM20.6091 23.5127H24.343V17.0706C24.343 13.6198 22.5007 12.0141 20.0438 12.0141C18.0626 12.0141 17.1747 13.103 16.6784 13.8686V12.2778H12.9443C12.9932 13.3318 12.9443 23.5127 12.9443 23.5127H16.6784V17.2386C16.6784 16.9029 16.7025 16.5674 16.8012 16.3273C17.0712 15.6565 17.6856 14.9617 18.7172 14.9617C20.0684 14.9617 20.6091 15.9918 20.6091 17.5023V23.5127Z" fill="url(#paint0_linear_1954_42)"/>
<defs>
<linearGradient id="paint0_linear_1954_42" x1="15.3333" y1="0.333008" x2="15.3333" y2="30.9997" gradientUnits="userSpaceOnUse">
<stop stop-color="#A3B7C7"/>
<stop offset="1" stop-color="#738A9C"/>
</linearGradient>
</defs>
</svg>
