<svg width="300" height="41" viewBox="0 0 300 41" fill="none" xmlns="http://www.w3.org/2000/svg">
<g clip-path="url(#clip0_1945_3291)">
<path fill-rule="evenodd" clip-rule="evenodd" d="M63.094 15.1621H65.2664L59.9992 21.1469L66.5615 27.7734H64.1881L57.9819 21.5444V27.7734H56.2432V15.1621H57.9819V20.9303L63.094 15.1621Z" fill="#171C22"/>
<path fill-rule="evenodd" clip-rule="evenodd" d="M74.5869 27.7734H76.8798V15.1621H74.5869V27.7734Z" fill="#171C22"/>
<path fill-rule="evenodd" clip-rule="evenodd" d="M87.1973 15.1621H88.8573V26.1304H94.0767V27.7734H87.1973V15.1621Z" fill="#171C22"/>
<path fill-rule="evenodd" clip-rule="evenodd" d="M104.396 15.1621H106.056V26.1304H111.275V27.7734H104.396V15.1621Z" fill="#171C22"/>
<path fill-rule="evenodd" clip-rule="evenodd" d="M119.3 27.7734H121.593V15.1621H119.3V27.7734Z" fill="#171C22"/>
<path fill-rule="evenodd" clip-rule="evenodd" d="M141.693 15.1621H143.376V27.7734H141.852L133.577 18.061V27.7734H131.911V15.1621H133.346L141.693 24.9577V15.1621Z" fill="#171C22"/>
<path fill-rule="evenodd" clip-rule="evenodd" d="M160.398 21.7483H164.606V27.0169C163.062 27.6811 161.531 28.0132 160.012 28.0132C157.937 28.0132 156.278 27.413 155.037 26.2118C153.796 25.0097 153.176 23.5284 153.176 21.7662C153.176 19.9101 153.819 18.364 155.106 17.1303C156.391 15.8966 158.002 15.2793 159.941 15.2793C160.646 15.2793 161.316 15.3553 161.95 15.5056C162.584 15.6576 163.385 15.9342 164.354 16.338V18.1531C162.86 17.2933 161.375 16.8631 159.905 16.8631C158.534 16.8631 157.381 17.3258 156.441 18.2513C155.503 19.1768 155.033 20.3123 155.033 21.6595C155.033 23.0717 155.503 24.225 156.441 25.1207C157.381 26.0171 158.589 26.4645 160.067 26.4645C160.784 26.4645 161.642 26.3015 162.641 25.9753L162.811 25.9223V23.332H160.398V21.7483Z" fill="#171C22"/>
<path fill-rule="evenodd" clip-rule="evenodd" d="M194.116 15.4404H196.358L190.923 21.3399L197.695 27.8721H195.245L188.84 21.7318V27.8721H187.046V15.4404H188.84V21.1265L194.116 15.4404Z" fill="#171C22"/>
<path fill-rule="evenodd" clip-rule="evenodd" d="M206.444 27.8721H208.238V15.4404H206.444V27.8721Z" fill="#171C22"/>
<path fill-rule="evenodd" clip-rule="evenodd" d="M217.301 15.4229H227.77V17.0066H223.401V27.8716H221.598V17.0066H217.301V15.4229Z" fill="#171C22"/>
<path fill-rule="evenodd" clip-rule="evenodd" d="M235.748 15.4229H246.217V17.0066H241.848V27.8716H240.045V17.0066H235.748V15.4229Z" fill="#171C22"/>
<path fill-rule="evenodd" clip-rule="evenodd" d="M255.264 15.4404H262.368V17.0241H257.057V20.8157H262.19V22.408H257.057V26.2705H262.539V27.8542H255.264V15.4404Z" fill="#171C22"/>
<path fill-rule="evenodd" clip-rule="evenodd" d="M281.755 15.4404H283.459V27.8721H281.917L273.537 18.298V27.8721H271.851V15.4404H273.304L281.755 25.0965V15.4404Z" fill="#171C22"/>
<path fill-rule="evenodd" clip-rule="evenodd" d="M296.598 22.6628L295.234 21.8415C294.378 21.3232 293.77 20.8136 293.408 20.3124C293.046 19.8104 292.865 19.2333 292.865 18.5818C292.865 17.6026 293.208 16.8077 293.892 16.1964C294.578 15.5859 295.468 15.2803 296.562 15.2803C297.609 15.2803 298.569 15.5714 299.442 16.1546V18.1737C298.538 17.3122 297.567 16.882 296.526 16.882C295.94 16.882 295.459 17.016 295.082 17.2849C294.705 17.5547 294.516 17.8988 294.516 18.3171C294.516 18.6903 294.656 19.0394 294.933 19.3639C295.211 19.6892 295.657 20.0298 296.272 20.3867L297.642 21.1909C299.171 22.0976 299.935 23.2493 299.935 24.6503C299.935 25.6467 299.598 26.4561 298.925 27.0793C298.254 27.7017 297.378 28.0142 296.301 28.0142C295.064 28.0142 293.936 27.636 292.92 26.8812V24.6213C293.889 25.8388 295.01 26.4484 296.284 26.4484C296.846 26.4484 297.313 26.293 297.688 25.9822C298.061 25.6715 298.249 25.283 298.249 24.816C298.249 24.0604 297.698 23.3424 296.598 22.6628Z" fill="#171C22"/>
<path fill-rule="evenodd" clip-rule="evenodd" d="M8.64488 0.615234V0.991745C7.3616 0.991745 6.66011 1.16506 6.66011 3.27813V29.2001C6.66011 31.1706 7.18599 31.6607 8.44258 31.6607V32.038H0.0664062V31.6607C1.29202 31.6607 1.70085 31.1706 1.70085 29.2001V3.27813C1.70085 1.48266 1.32043 0.991745 0.0664062 0.991745V0.615234H8.64488Z" fill="#171C22"/>
<path fill-rule="evenodd" clip-rule="evenodd" d="M20.0428 30.83C19.6856 30.5491 19.3095 30.1743 18.9188 29.6654C18.9188 29.6654 18.5392 29.1763 14.8563 24.297C13.9517 23.0983 12.8518 21.6392 11.5048 19.854C12.7485 18.3787 13.8588 17.1732 14.8563 16.1887C17.4306 13.6454 19.2432 12.5808 20.5988 12.2093C21.0472 12.0873 21.4466 12.0386 21.8064 12.0386V11.6621H21.8003H13.221H12.177V12.0386C15.7084 12.0958 13.4603 16.9008 12.4102 18.0295L7.91406 23.0377C7.91406 23.0377 9.19989 24.7162 10.8628 27.0888C12.5041 29.4059 13.4138 30.6575 14.3675 31.3218C15.2127 31.91 16.0923 32.0381 17.546 32.0381H21.5981H22.4501V31.6615C21.8898 31.6402 21.0446 31.6172 20.0428 30.83Z" fill="#171C22"/>
<path fill-rule="evenodd" clip-rule="evenodd" d="M39.3634 39.1773C39.0062 38.8972 38.6301 38.5215 38.2393 38.0127C38.2393 38.0127 37.8598 37.5235 34.1769 32.6451C33.2723 31.4464 25.929 21.6401 24.582 19.854C25.8257 18.3796 26.9368 17.174 27.9335 16.1888C30.5078 13.6463 32.3204 12.5816 33.6769 12.2103C34.1253 12.0881 34.5238 12.0395 34.8835 12.0395V11.6621H34.8775H26.2991H25.2542V12.0395C28.7856 12.0958 26.5383 16.9008 25.4875 18.0295L20.9912 23.0385C20.9912 23.0385 28.5205 33.0635 30.1833 35.4361C31.8247 37.7532 32.7344 39.0048 33.6881 39.669C34.5332 40.2581 35.4129 40.3853 36.8666 40.3853H40.9186H41.7707V40.0088C41.2104 39.9875 40.3653 39.9645 39.3634 39.1773Z" fill="#171C22"/>
</g>
<defs>
<clipPath id="clip0_1945_3291">
<rect width="300" height="39.7692" fill="white" transform="translate(0 0.615234)"/>
</clipPath>
</defs>
</svg>
