<svg width="300" height="41" viewBox="0 0 300 41" fill="none" xmlns="http://www.w3.org/2000/svg">
<g clip-path="url(#clip0_1928_22089)">
<path fill-rule="evenodd" clip-rule="evenodd" d="M63.0942 15.1621H65.2667L59.9995 21.1469L66.5617 27.7734H64.1884L57.9822 21.5444V27.7734H56.2434V15.1621H57.9822V20.9303L63.0942 15.1621Z" fill="white"/>
<path fill-rule="evenodd" clip-rule="evenodd" d="M74.5869 27.7734H76.8798V15.1621H74.5869V27.7734Z" fill="white"/>
<path fill-rule="evenodd" clip-rule="evenodd" d="M87.1975 15.1621H88.8575V26.1304H94.0769V27.7734H87.1975V15.1621Z" fill="white"/>
<path fill-rule="evenodd" clip-rule="evenodd" d="M104.396 15.1621H106.056V26.1304H111.275V27.7734H104.396V15.1621Z" fill="white"/>
<path fill-rule="evenodd" clip-rule="evenodd" d="M119.3 27.7734H121.592V15.1621H119.3V27.7734Z" fill="white"/>
<path fill-rule="evenodd" clip-rule="evenodd" d="M141.693 15.1621H143.376V27.7734H141.852L133.578 18.061V27.7734H131.911V15.1621H133.347L141.693 24.9577V15.1621Z" fill="white"/>
<path fill-rule="evenodd" clip-rule="evenodd" d="M160.398 21.7483H164.605V27.0169C163.062 27.6811 161.531 28.0132 160.012 28.0132C157.937 28.0132 156.278 27.413 155.037 26.2118C153.796 25.0097 153.176 23.5284 153.176 21.7662C153.176 19.9101 153.818 18.364 155.105 17.1303C156.39 15.8966 158.002 15.2793 159.941 15.2793C160.646 15.2793 161.316 15.3553 161.949 15.5056C162.584 15.6576 163.385 15.9342 164.354 16.338V18.1531C162.859 17.2933 161.375 16.8631 159.905 16.8631C158.534 16.8631 157.381 17.3258 156.441 18.2513C155.503 19.1768 155.033 20.3123 155.033 21.6595C155.033 23.0717 155.503 24.225 156.441 25.1207C157.381 26.0171 158.589 26.4645 160.066 26.4645C160.783 26.4645 161.642 26.3015 162.64 25.9753L162.811 25.9223V23.332H160.398V21.7483Z" fill="white"/>
<path fill-rule="evenodd" clip-rule="evenodd" d="M194.117 15.4399H196.359L190.923 21.3394L197.695 27.8716H195.245L188.841 21.7313V27.8716H187.046V15.4399H188.841V21.126L194.117 15.4399Z" fill="white"/>
<path fill-rule="evenodd" clip-rule="evenodd" d="M206.445 27.8716H208.238V15.4399H206.445V27.8716Z" fill="white"/>
<path fill-rule="evenodd" clip-rule="evenodd" d="M217.301 15.4224H227.77V17.0061H223.401V27.8711H221.598V17.0061H217.301V15.4224Z" fill="white"/>
<path fill-rule="evenodd" clip-rule="evenodd" d="M235.748 15.4224H246.217V17.0061H241.848V27.8711H240.045V17.0061H235.748V15.4224Z" fill="white"/>
<path fill-rule="evenodd" clip-rule="evenodd" d="M255.263 15.4399H262.368V17.0236H257.057V20.8152H262.189V22.4075H257.057V26.27H262.538V27.8537H255.263V15.4399Z" fill="white"/>
<path fill-rule="evenodd" clip-rule="evenodd" d="M281.756 15.4399H283.46V27.8716H281.917L273.538 18.2975V27.8716H271.851V15.4399H273.305L281.756 25.096V15.4399Z" fill="white"/>
<path fill-rule="evenodd" clip-rule="evenodd" d="M296.597 22.6628L295.234 21.8415C294.378 21.3232 293.77 20.8136 293.408 20.3124C293.046 19.8104 292.865 19.2333 292.865 18.5818C292.865 17.6026 293.207 16.8077 293.892 16.1964C294.577 15.5859 295.468 15.2803 296.562 15.2803C297.608 15.2803 298.568 15.5714 299.442 16.1546V18.1737C298.538 17.3122 297.566 16.882 296.525 16.882C295.94 16.882 295.459 17.016 295.081 17.2849C294.704 17.5547 294.516 17.8988 294.516 18.3171C294.516 18.6903 294.655 19.0394 294.932 19.3639C295.211 19.6892 295.656 20.0298 296.272 20.3867L297.642 21.1909C299.171 22.0976 299.935 23.2493 299.935 24.6503C299.935 25.6467 299.598 26.4561 298.925 27.0793C298.253 27.7017 297.378 28.0142 296.301 28.0142C295.063 28.0142 293.936 27.636 292.919 26.8812V24.6213C293.888 25.8388 295.009 26.4484 296.284 26.4484C296.846 26.4484 297.313 26.293 297.687 25.9822C298.061 25.6715 298.248 25.283 298.248 24.816C298.248 24.0604 297.698 23.3424 296.597 22.6628Z" fill="white"/>
<path fill-rule="evenodd" clip-rule="evenodd" d="M8.64439 0.615723V0.992233C7.36111 0.992233 6.65962 1.16555 6.65962 3.27862V29.2006C6.65962 31.1711 7.18551 31.6612 8.44209 31.6612V32.0385H0.065918V31.6612C1.29153 31.6612 1.70036 31.1711 1.70036 29.2006V3.27862C1.70036 1.48314 1.31994 0.992233 0.065918 0.992233V0.615723H8.64439Z" fill="white"/>
<path fill-rule="evenodd" clip-rule="evenodd" d="M20.0433 30.83C19.6861 30.5491 19.31 30.1743 18.9193 29.6654C18.9193 29.6654 18.5397 29.1763 14.8568 24.297C13.9522 23.0983 12.8523 21.6392 11.5053 19.854C12.749 18.3787 13.8593 17.1732 14.8568 16.1887C17.4311 13.6454 19.2437 12.5808 20.5993 12.2093C21.0477 12.0873 21.447 12.0386 21.8069 12.0386V11.6621H21.8008H13.2215H12.1775V12.0386C15.7089 12.0958 13.4608 16.9008 12.4107 18.0295L7.91455 23.0377C7.91455 23.0377 9.20038 24.7162 10.8633 27.0888C12.5045 29.4059 13.4143 30.6575 14.368 31.3218C15.2132 31.91 16.0927 32.0381 17.5465 32.0381H21.5986H22.4506V31.6615C21.8903 31.6402 21.0451 31.6172 20.0433 30.83Z" fill="white"/>
<path fill-rule="evenodd" clip-rule="evenodd" d="M39.3632 39.1773C39.0059 38.8972 38.6299 38.5215 38.2391 38.0127C38.2391 38.0127 37.8596 37.5235 34.1767 32.6451C33.2721 31.4464 25.9287 21.6401 24.5818 19.854C25.8254 18.3796 26.9366 17.174 27.9333 16.1888C30.5075 13.6463 32.3202 12.5816 33.6766 12.2103C34.1251 12.0881 34.5235 12.0395 34.8833 12.0395V11.6621H34.8773H26.2989H25.254V12.0395C28.7853 12.0958 26.5381 16.9008 25.4872 18.0295L20.991 23.0385C20.991 23.0385 28.5203 33.0635 30.1831 35.4361C31.8244 37.7532 32.7342 39.0048 33.6878 39.669C34.533 40.2581 35.4126 40.3853 36.8663 40.3853H40.9184H41.7705V40.0088C41.2102 39.9875 40.365 39.9645 39.3632 39.1773Z" fill="white"/>
</g>
<defs>
<clipPath id="clip0_1928_22089">
<rect width="300" height="39.7692" fill="white" transform="translate(0 0.615234)"/>
</clipPath>
</defs>
</svg>
