<svg width="31" height="31" viewBox="0 0 31 31" fill="none" xmlns="http://www.w3.org/2000/svg">
<path fill-rule="evenodd" clip-rule="evenodd" d="M0.333008 15.6663C0.333008 7.19927 7.19927 0.333008 15.6663 0.333008C24.1334 0.333008 30.9997 7.19927 30.9997 15.6663C30.9997 24.1334 24.1334 30.9997 15.6663 30.9997C7.19927 30.9997 0.333008 24.1334 0.333008 15.6663ZM22.6774 12.7432C22.6774 12.5908 22.6742 12.4392 22.6674 12.2883C23.3545 11.7916 23.9519 11.1716 24.4228 10.4657C23.7923 10.746 23.1138 10.9348 22.4018 11.02C23.1285 10.5841 23.6863 9.89483 23.9495 9.07337C23.2694 9.47649 22.5165 9.76942 21.7147 9.92758C21.0724 9.24346 20.1581 8.81553 19.1457 8.81553C17.2021 8.81553 15.6259 10.3918 15.6259 12.3346C15.6259 12.6107 15.657 12.8793 15.7173 13.1372C12.7923 12.99 10.1985 11.5895 8.46293 9.45988C8.16065 9.97999 7.98634 10.5841 7.98634 11.2289C7.98634 12.45 8.60753 13.5279 9.55252 14.1584C8.97509 14.1406 8.43275 13.982 7.9585 13.7183C7.95803 13.7331 7.95803 13.7473 7.95803 13.7633C7.95803 15.4675 9.17116 16.8907 10.7816 17.2131C10.4858 17.2938 10.1746 17.3371 9.85341 17.3371C9.62716 17.3371 9.40653 17.3147 9.19198 17.2735C9.64026 18.6719 10.9393 19.6894 12.4799 19.718C11.2752 20.662 9.75771 21.2245 8.10871 21.2245C7.8249 21.2245 7.54461 21.2084 7.26923 21.1758C8.82675 22.1742 10.6763 22.7568 12.6638 22.7568C19.1375 22.7565 22.6774 17.3937 22.6774 12.7432Z" fill="url(#paint0_linear_1554_16660)"/>
<defs>
<linearGradient id="paint0_linear_1554_16660" x1="15.6663" y1="0.333008" x2="15.6663" y2="30.9997" gradientUnits="userSpaceOnUse">
<stop stop-color="#A3B7C7"/>
<stop offset="1" stop-color="#738A9C"/>
</linearGradient>
</defs>
</svg>
